<svg aria-hidden="true" xmlns="http://www.w3.org/2000/svg" xmlns:xlink="http://www.w3.org/1999/xlink"><symbol viewBox="0 0 24 24" id="Facebook" xmlns="http://www.w3.org/2000/svg">
<g opacity="0.6">
<path d="M17.5628 1.00458L14.7856 1C11.6654 1 9.64903 3.12509 9.64903 6.41423V8.91055H6.85662C6.61532 8.91055 6.41992 9.1115 6.41992 9.35937V12.9763C6.41992 13.2241 6.61554 13.4249 6.85662 13.4249H9.64903V22.5514C9.64903 22.7993 9.84443 23 10.0857 23H13.729C13.9703 23 14.1657 22.799 14.1657 22.5514V13.4249H17.4307C17.672 13.4249 17.8674 13.2241 17.8674 12.9763L17.8688 9.35937C17.8688 9.24036 17.8226 9.12638 17.7409 9.04215C17.6591 8.95793 17.5477 8.91055 17.4318 8.91055H14.1657V6.79439C14.1657 5.77727 14.4017 5.26094 15.6915 5.26094L17.5624 5.26025C17.8035 5.26025 17.9989 5.0593 17.9989 4.81166V1.45317C17.9989 1.20576 17.8037 1.00504 17.5628 1.00458Z"/>
</g>
</symbol><symbol viewBox="0 0 20 20" id="Facebook_1" xmlns="http://www.w3.org/2000/svg">
<g id="acFacebook">
<path id="acVector" d="M14.6354 0.837799L12.321 0.833984C9.72086 0.833984 8.04054 2.60489 8.04054 5.34584V7.42611H5.71352C5.51244 7.42611 5.34961 7.59357 5.34961 7.80013V10.8142C5.34961 11.0208 5.51263 11.188 5.71352 11.188H8.04054V18.7935C8.04054 19 8.20337 19.1673 8.40445 19.1673H11.4405C11.6416 19.1673 11.8045 18.9999 11.8045 18.7935V11.188H14.5253C14.7264 11.188 14.8892 11.0208 14.8892 10.8142L14.8903 7.80013C14.8903 7.70095 14.8519 7.60597 14.7837 7.53578C14.7156 7.46559 14.6227 7.42611 14.5262 7.42611H11.8045V5.66264C11.8045 4.81505 12.0011 4.38476 13.0759 4.38476L14.635 4.38419C14.8359 4.38419 14.9987 4.21673 14.9987 4.01037V1.21163C14.9987 1.00545 14.8361 0.83818 14.6354 0.837799Z"/>
</g>
</symbol><symbol viewBox="0 0 53 52" id="Interior_Design" xmlns="http://www.w3.org/2000/svg">
<path d="M49.7504 30.9497C50.7897 29.5433 50.9811 27.582 50.0361 25.9454L43.9455 15.2945C42.8919 13.4696 40.6701 12.6369 38.6882 13.1667C39.1102 11.2698 38.2823 9.23477 36.5124 8.21295L25.9584 2.11961C24.4511 1.24922 22.6489 1.33839 21.2628 2.19568C20.4596 0.880141 19.0104 0 17.3594 0H5.07031C2.55024 0 0.5 2.05024 0.5 4.57031C0.5 5.62707 0.5 46.2132 0.5 47.4297C0.5 49.9498 2.55024 52 5.07031 52C6.25382 52 42.1374 52 47.9297 52C50.4498 52 52.5 49.9498 52.5 47.4297V35.1406C52.5 33.2675 51.3669 31.6547 49.7504 30.9497ZM18.8828 47.4297C18.8828 48.2697 18.1994 48.9531 17.3594 48.9531H5.07031C4.23029 48.9531 3.54688 48.2697 3.54688 47.4297C3.54688 46.7337 3.54688 34.2857 3.54688 33.6172H18.8828V47.4297ZM18.8828 30.5703H3.54688V18.2812H18.8828V30.5703ZM18.8828 15.2344H3.54688V4.57031C3.54688 3.73029 4.23029 3.04688 5.07031 3.04688H17.3594C18.1994 3.04688 18.8828 3.73029 18.8828 4.57031V15.2344ZM21.9297 6.04988L22.3533 5.31609C22.7736 4.58839 23.7073 4.33814 24.4349 4.75831L34.989 10.8516C35.7167 11.2718 35.9668 12.2056 35.5456 12.9353L33.7853 15.9951C33.7412 16.0602 33.7016 16.1278 33.6683 16.1984L21.9297 36.6026V6.04988ZM21.9297 42.7126L36.171 17.9581L39.1156 16.258C39.8621 15.8271 40.8859 16.0888 41.3037 16.8125L47.3944 27.4633C47.8156 28.1929 47.57 29.1283 46.8328 29.5539C45.7449 30.1837 23.0011 43.3507 21.9297 43.971V42.7126ZM49.4531 47.4297C49.4531 48.2697 48.7697 48.9531 47.9297 48.9531H21.6677C21.8301 48.4951 21.9212 48.0039 21.9282 47.4926L45.8954 33.6172H47.9297C48.7697 33.6172 49.4531 34.3006 49.4531 35.1406V47.4297Z"/>
</symbol><symbol viewBox="0 0 20 20" id="Linked-In" xmlns="http://www.w3.org/2000/svg">
<path d="M18.3285 18.3327L18.3327 18.332V12.2195C18.3327 9.22921 17.6889 6.92574 14.1931 6.92574C12.5125 6.92574 11.3848 7.84796 10.9243 8.72227H10.8757V7.2049H7.56115V18.332H11.0125V12.8223C11.0125 11.3716 11.2875 9.9688 13.0841 9.9688C14.8542 9.9688 14.8806 11.6244 14.8806 12.9153V18.3327H18.3285Z"/>
<path d="M1.94101 7.2056H5.39657V18.3327H1.94101V7.2056Z"/>
<path d="M3.6674 1.66602C2.56254 1.66602 1.66602 2.56254 1.66602 3.6674C1.66602 4.77227 2.56254 5.68754 3.6674 5.68754C4.77227 5.68754 5.66879 4.77227 5.66879 3.6674C5.6681 2.56254 4.77157 1.66602 3.6674 1.66602Z"/>
</symbol><symbol viewBox="0 0 24 24" id="Messanger" xmlns="http://www.w3.org/2000/svg">
<g opacity="0.6">
<path d="M12 2C6.4775 2 2 6.145 2 11.2588C2 14.1725 3.45375 16.7713 5.72625 18.4688V22L9.13125 20.1313C10.04 20.3825 11.0025 20.5187 12 20.5187C17.5225 20.5187 22 16.3738 22 11.26C22 6.14625 17.5225 2 12 2ZM12.9938 14.4688L10.4475 11.7525L5.47875 14.4688L10.945 8.66625L13.5538 11.3825L18.46 8.66625L12.9938 14.4688Z"/>
</g>
</symbol><symbol viewBox="0 0 53 52" id="Project_Development" xmlns="http://www.w3.org/2000/svg">
<g clip-path="url(#asclip0_68106_1515)">
<path d="M46.4062 3.14844C44.1552 3.14844 42.1854 4.37521 41.1303 6.19531H2.02344C1.18209 6.19531 0.5 6.87741 0.5 7.71875V47.3281C0.5 48.1695 1.18209 48.8516 2.02344 48.8516H46.4062C49.7663 48.8516 52.5 46.1179 52.5 42.7578V9.24219C52.5 5.88209 49.7663 3.14844 46.4062 3.14844ZM46.4062 45.8047C45.8103 45.8047 4.1011 45.8047 3.54688 45.8047V9.24219H40.3125V42.7578C40.3125 43.5992 40.9946 44.2812 41.8359 44.2812C42.6773 44.2812 43.3594 43.5992 43.3594 42.7578C43.3594 41.0778 44.7262 39.7109 46.4062 39.7109C48.0863 39.7109 49.4531 41.0778 49.4531 42.7578C49.4531 44.4379 48.0863 45.8047 46.4062 45.8047ZM49.4531 37.4818C48.5563 36.9619 47.5153 36.6641 46.4062 36.6641C45.2972 36.6641 44.2562 36.9619 43.3594 37.4818V9.24219C43.3594 7.56214 44.7262 6.19531 46.4062 6.19531C48.0863 6.19531 49.4531 7.56214 49.4531 9.24219V37.4818Z"/>
<path d="M35.6406 12.2891H8.21875C7.37741 12.2891 6.69531 12.9712 6.69531 13.8125V41.2344C6.69531 42.0757 7.37741 42.7578 8.21875 42.7578H23.4531C23.8572 42.7578 24.2446 42.5972 24.5303 42.3115C24.8161 42.0259 24.9766 41.6384 24.9766 41.2344V38.1875C24.9766 36.2013 26.2501 34.507 28.0234 33.8782V41.2344C28.0234 42.0757 28.7055 42.7578 29.5469 42.7578H35.6406C36.482 42.7578 37.1641 42.0757 37.1641 41.2344V13.8125C37.1641 12.9712 36.482 12.2891 35.6406 12.2891ZM34.1172 39.7109H31.0703V32.0938C31.0703 31.2524 30.3882 30.5703 29.5469 30.5703C25.3468 30.5703 21.9297 33.9874 21.9297 38.1875V39.7109H9.74219V30.5703H15.8359V35.1406C15.8359 35.982 16.518 36.6641 17.3594 36.6641C18.2007 36.6641 18.8828 35.982 18.8828 35.1406V29.0469C18.8828 28.2055 18.2007 27.5234 17.3594 27.5234H9.74219V15.3359H18.8828V21.4297H14.3125C13.4712 21.4297 12.7891 22.1118 12.7891 22.9531C12.7891 23.7945 13.4712 24.4766 14.3125 24.4766H20.4062H26.5C27.3413 24.4766 28.0234 23.7945 28.0234 22.9531C28.0234 22.1118 27.3413 21.4297 26.5 21.4297H21.9297V15.3359H34.1172V39.7109Z"/>
</g>
<defs>
<clipPath id="asclip0_68106_1515">
<rect width="52" height="52" transform="translate(0.5)"/>
</clipPath>
</defs>
</symbol><symbol viewBox="0 0 53 52" id="Repairs" xmlns="http://www.w3.org/2000/svg">
<path d="M43.3594 4.57031C43.3594 2.05029 41.3091 0 38.7891 0H8.32031C5.80029 0 3.75 2.05029 3.75 4.57031V13.7109C3.75 16.231 5.80029 18.2813 8.32031 18.2813H38.7891C41.3091 18.2813 43.3594 16.231 43.3594 13.7109V12.1875H44.8828C45.7227 12.1875 46.4063 12.8711 46.4063 13.7109V19.8047C46.4063 20.6446 45.7227 21.3281 44.8828 21.3281H26.6016C24.0815 21.3281 22.0313 23.3784 22.0313 25.8984V30.4688H20.5078C19.6664 30.4688 18.9844 31.1507 18.9844 31.9922V38.003L17.4609 44.1952C16.4703 48.1573 19.464 52 23.5547 52C27.6473 52 30.6379 48.1533 29.65 44.2007L28.125 38.003V31.9922C28.125 31.1507 27.443 30.4688 26.6016 30.4688H25.0781V25.8984C25.0781 25.0586 25.7617 24.375 26.6016 24.375H44.8828C47.4028 24.375 49.4531 22.3247 49.4531 19.8047V13.7109C49.4531 11.1909 47.4028 9.14063 44.8828 9.14063H43.3594V4.57031ZM25.0781 33.5156V36.6641H22.0313V33.5156H25.0781ZM23.5547 48.9531C21.456 48.9531 19.9044 46.9834 20.4182 44.9287L21.702 39.7109H25.4074L26.6924 44.9343C27.2026 46.9746 25.6609 48.9531 23.5547 48.9531ZM8.32031 3.04688H38.7891C39.6289 3.04688 40.3125 3.73044 40.3125 4.57031V6.09375H35.7422C34.2616 6.09375 32.3684 6.64838 30.1761 7.29028C27.2149 8.15753 23.859 9.14063 20.5078 9.14063C17.2412 9.14063 14.9381 8.18649 12.9061 7.34503C11.3525 6.70154 9.88541 6.09375 8.32031 6.09375H6.79688V4.57031C6.79688 3.73044 7.48044 3.04688 8.32031 3.04688ZM40.3125 13.7109C40.3125 14.5508 39.6289 15.2344 38.7891 15.2344H8.32031C7.48044 15.2344 6.79688 14.5508 6.79688 13.7109V9.14063H8.32031C9.27921 9.14063 10.3654 9.59052 11.7401 10.1598C13.9209 11.0632 16.6349 12.1875 20.5078 12.1875C24.2962 12.1875 28.031 11.0933 31.0326 10.2146C32.9179 9.66232 34.6988 9.14063 35.7422 9.14063H40.3125V13.7109Z"/>
</symbol><symbol viewBox="0 0 24 24" id="Twitter" xmlns="http://www.w3.org/2000/svg">
<g opacity="0.6">
<path d="M22.5 5.77233C21.7271 6.10027 20.8978 6.32267 20.0264 6.42196C20.9161 5.91181 21.5972 5.10263 21.92 4.1414C21.0854 4.61383 20.1642 4.95688 19.1826 5.14285C18.3966 4.33994 17.2785 3.83984 16.0384 3.83984C13.6593 3.83984 11.7303 5.68691 11.7303 7.9637C11.7303 8.2866 11.7683 8.60199 11.8418 8.90357C8.26201 8.73141 5.08768 7.08917 2.96314 4.59372C2.59176 5.20189 2.38049 5.91053 2.38049 6.66697C2.38049 8.09814 3.14161 9.36093 4.2964 10.0997C3.5904 10.0771 2.92639 9.89116 2.34508 9.58205V9.63357C2.34508 11.6314 3.83056 13.2988 5.80024 13.6783C5.43936 13.7713 5.05882 13.8228 4.66514 13.8228C4.38696 13.8228 4.11794 13.7964 3.85417 13.7461C4.40267 15.3859 5.99315 16.5783 7.87756 16.611C6.40388 17.7167 4.54573 18.3739 2.52749 18.3739C2.17976 18.3739 1.83724 18.3537 1.5 18.3173C3.40671 19.4896 5.67036 20.1732 8.10327 20.1732C16.028 20.1732 20.3597 13.8881 20.3597 8.43741L20.3453 7.90341C21.1917 7.32537 21.9239 6.59912 22.5 5.77233Z"/>
</g>
</symbol><symbol viewBox="0 0 20 20" id="Twitter_1" xmlns="http://www.w3.org/2000/svg">
<g id="awTwitter">
<path id="awVector" d="M18.75 4.80963C18.1059 5.08291 17.4148 5.26824 16.6887 5.35098C17.4301 4.92586 17.9976 4.25154 18.2666 3.45051C17.5711 3.84421 16.8035 4.13008 15.9855 4.28505C15.3305 3.61597 14.3988 3.19922 13.3653 3.19922C11.3827 3.19922 9.77523 4.73844 9.77523 6.63576C9.77523 6.90485 9.80694 7.16767 9.86819 7.41899C6.88501 7.27552 4.23973 5.90699 2.46928 3.82745C2.1598 4.33426 1.98374 4.92479 1.98374 5.55516C1.98374 6.7478 2.618 7.80012 3.58033 8.41579C2.992 8.39695 2.43866 8.24198 1.95423 7.98439V8.02732C1.95423 9.69219 3.19213 11.0817 4.83353 11.3979C4.5328 11.4754 4.21568 11.5183 3.88761 11.5183C3.6558 11.5183 3.43161 11.4963 3.2118 11.4544C3.66889 12.8209 4.99429 13.8146 6.56463 13.8418C5.33657 14.7633 3.7881 15.3109 2.10624 15.3109C1.81646 15.3109 1.53103 15.2941 1.25 15.2638C2.83893 16.2407 4.7253 16.8103 6.75273 16.8103C13.3566 16.8103 16.9665 11.5728 16.9665 7.03053L16.9544 6.58552C17.6597 6.10382 18.2699 5.49862 18.75 4.80963Z"/>
</g>
</symbol><symbol viewBox="0 0 24 24" id="Vibber" xmlns="http://www.w3.org/2000/svg">
<g opacity="0.6">
<path d="M22 11.7424C22 17.1231 17.6047 21.4849 12.1818 21.4849C10.4602 21.4849 8.84289 21.0449 7.43578 20.2727L2 22L3.77222 16.7729C2.87822 15.3049 2.36333 13.5831 2.36333 11.7424C2.36333 6.36178 6.75911 2 12.1818 2C17.6051 2 22 6.36178 22 11.7424ZM12.1818 3.55156C7.62978 3.55156 3.92711 7.226 3.92711 11.7424C3.92711 13.5347 4.51133 15.1944 5.49956 16.5447L4.46822 19.5867L7.64044 18.5784C8.94378 19.4342 10.5051 19.9333 12.182 19.9333C16.7333 19.9333 20.4367 16.2593 20.4367 11.7429C20.4367 7.22644 16.7336 3.55156 12.1818 3.55156ZM17.1398 13.9862C17.0791 13.8869 16.9189 13.8269 16.6784 13.7076C16.4376 13.5882 15.254 13.0102 15.034 12.9309C14.8133 12.8513 14.6524 12.8113 14.4922 13.0502C14.332 13.2893 13.8707 13.8269 13.73 13.9862C13.5896 14.146 13.4493 14.166 13.2084 14.0464C12.968 13.9271 12.1927 13.6747 11.2733 12.8613C10.558 12.2284 10.0749 11.4471 9.93444 11.2078C9.79422 10.9689 9.91978 10.8398 10.04 10.7209C10.1484 10.6138 10.2809 10.442 10.4011 10.3027C10.5218 10.1631 10.5618 10.0638 10.6416 9.90422C10.7222 9.74489 10.682 9.60556 10.6216 9.48578C10.5616 9.36644 10.0798 8.19133 9.87933 7.71311C9.67889 7.23533 9.47867 7.31489 9.338 7.31489C9.19778 7.31489 9.03711 7.29489 8.87667 7.29489C8.71622 7.29489 8.45533 7.35467 8.23467 7.59356C8.01422 7.83267 7.39267 8.41044 7.39267 9.58533C7.39267 10.7604 8.25467 11.8958 8.37533 12.0549C8.49556 12.214 10.0398 14.7038 12.4864 15.66C14.9333 16.6158 14.9333 16.2969 15.3747 16.2569C15.8156 16.2171 16.7982 15.6793 16.9996 15.122C17.1996 14.5638 17.1996 14.0858 17.1398 13.9862Z"/>
</g>
</symbol><symbol viewBox="0 0 24 24" id="Whatsapp" xmlns="http://www.w3.org/2000/svg">
<g opacity="0.6">
<path d="M22 11.7424C22 17.1231 17.6047 21.4849 12.1818 21.4849C10.4602 21.4849 8.84289 21.0449 7.43578 20.2727L2 22L3.77222 16.7729C2.87822 15.3049 2.36333 13.5831 2.36333 11.7424C2.36333 6.36178 6.75911 2 12.1818 2C17.6051 2 22 6.36178 22 11.7424ZM12.1818 3.55156C7.62978 3.55156 3.92711 7.226 3.92711 11.7424C3.92711 13.5347 4.51133 15.1944 5.49956 16.5447L4.46822 19.5867L7.64044 18.5784C8.94378 19.4342 10.5051 19.9333 12.182 19.9333C16.7333 19.9333 20.4367 16.2593 20.4367 11.7429C20.4367 7.22644 16.7336 3.55156 12.1818 3.55156ZM17.1398 13.9862C17.0791 13.8869 16.9189 13.8269 16.6784 13.7076C16.4376 13.5882 15.254 13.0102 15.034 12.9309C14.8133 12.8513 14.6524 12.8113 14.4922 13.0502C14.332 13.2893 13.8707 13.8269 13.73 13.9862C13.5896 14.146 13.4493 14.166 13.2084 14.0464C12.968 13.9271 12.1927 13.6747 11.2733 12.8613C10.558 12.2284 10.0749 11.4471 9.93444 11.2078C9.79422 10.9689 9.91978 10.8398 10.04 10.7209C10.1484 10.6138 10.2809 10.442 10.4011 10.3027C10.5218 10.1631 10.5618 10.0638 10.6416 9.90422C10.7222 9.74489 10.682 9.60556 10.6216 9.48578C10.5616 9.36644 10.0798 8.19133 9.87933 7.71311C9.67889 7.23533 9.47867 7.31489 9.338 7.31489C9.19778 7.31489 9.03711 7.29489 8.87667 7.29489C8.71622 7.29489 8.45533 7.35467 8.23467 7.59356C8.01422 7.83267 7.39267 8.41044 7.39267 9.58533C7.39267 10.7604 8.25467 11.8958 8.37533 12.0549C8.49556 12.214 10.0398 14.7038 12.4864 15.66C14.9333 16.6158 14.9333 16.2969 15.3747 16.2569C15.8156 16.2171 16.7982 15.6793 16.9996 15.122C17.1996 14.5638 17.1996 14.0858 17.1398 13.9862Z"/>
</g>
</symbol><symbol viewBox="0 0 24 24" id="YouTube" xmlns="http://www.w3.org/2000/svg">
<g opacity="0.6">
<path fill-rule="evenodd" clip-rule="evenodd" d="M21.3903 4.11358C22.4182 4.39044 23.2288 5.20086 23.5055 6.22899C24.0197 8.10691 23.9999 12.0213 23.9999 12.0213C23.9999 12.0213 23.9999 15.9158 23.5057 17.7939C23.2288 18.8218 22.4184 19.6324 21.3903 19.9091C19.5122 20.4035 12 20.4035 12 20.4035C12 20.4035 4.50731 20.4035 2.60961 19.8895C1.58148 19.6127 0.771054 18.802 0.4942 17.7741C0 15.9158 0 12.0015 0 12.0015C0 12.0015 0 8.10691 0.4942 6.22899C0.770871 5.20104 1.60125 4.37066 2.60943 4.09399C4.48753 3.59961 11.9998 3.59961 11.9998 3.59961C11.9998 3.59961 19.5122 3.59961 21.3903 4.11358ZM15.8549 12.0016L9.60788 15.5996V8.40355L15.8549 12.0016Z"/>
</g>
</symbol><symbol viewBox="0 0 24 24" id="YouTube-2" xmlns="http://www.w3.org/2000/svg">
<g id="baYouTube" opacity="0.6">
<path id="baSubtract" fill-rule="evenodd" clip-rule="evenodd" d="M21.3903 4.11358C22.4182 4.39044 23.2288 5.20086 23.5055 6.22899C24.0197 8.10691 23.9999 12.0213 23.9999 12.0213C23.9999 12.0213 23.9999 15.9158 23.5057 17.7939C23.2288 18.8218 22.4184 19.6324 21.3903 19.9091C19.5122 20.4035 12 20.4035 12 20.4035C12 20.4035 4.50731 20.4035 2.60961 19.8895C1.58148 19.6127 0.771054 18.802 0.4942 17.7741C0 15.9158 0 12.0015 0 12.0015C0 12.0015 0 8.10691 0.4942 6.22899C0.770871 5.20104 1.60125 4.37066 2.60943 4.09399C4.48753 3.59961 11.9998 3.59961 11.9998 3.59961C11.9998 3.59961 19.5122 3.59961 21.3903 4.11358ZM15.8549 12.0016L9.60788 15.5996V8.40355L15.8549 12.0016Z"/>
</g>
</symbol><symbol viewBox="0 0 48 48" id="comfort" xmlns="http://www.w3.org/2000/svg">
<g clip-path="url(#aaclip0_68092_597)">
<path d="M38.0536 2.09001C31.8843 1.44159 26.3377 5.93317 25.6893 12.1024L24.5623 22.8246C24.4812 23.597 25.0415 24.289 25.8139 24.3702L26.2801 24.4192L25.1041 35.6075C24.5638 40.7486 28.3068 45.3708 33.4478 45.9111C38.5889 46.4515 43.2111 42.7085 43.7514 37.5674L44.9274 26.3791L45.3935 26.4281C46.1659 26.5092 46.8579 25.9489 46.9391 25.1765L48.066 14.4543C48.7144 8.28506 44.2229 2.73842 38.0536 2.09001ZM37.7596 4.8871C42.3866 5.37341 45.7553 9.53339 45.2689 14.1603L44.877 17.8898L28.0944 16.1259L28.4864 12.3964C28.9727 7.76947 33.1327 4.40079 37.7596 4.8871ZM27.5064 21.7201L27.8004 18.923L44.583 20.6869L44.289 23.484L27.5064 21.7201ZM40.9543 37.2735C40.5761 40.8722 37.3405 43.4923 33.7418 43.114C30.1431 42.7358 27.523 39.5003 27.9012 35.9015L29.0772 24.7131L42.1303 26.0851L40.9543 37.2735Z"/>
<path d="M32.171 40.1218L35.9004 40.5138C36.6728 40.595 37.3648 40.0346 37.446 39.2622C37.5271 38.4899 36.9668 37.7979 36.1944 37.7167L32.465 37.3247C31.6926 37.2435 31.0006 37.8039 30.9194 38.5763C30.8382 39.3487 31.3986 40.0406 32.171 40.1218Z"/>
<path d="M9.94716 2.08968C3.77789 2.7381 -0.713682 8.28473 -0.0652657 14.454L1.06168 25.1762C1.14286 25.9486 1.83485 26.5089 2.60722 26.4277L3.0734 26.3787L4.24935 37.5671C4.7897 42.7082 9.41189 46.4511 14.5529 45.9108C19.694 45.3705 23.437 40.7483 22.8966 35.6072L21.7207 24.4188L22.1869 24.3698C22.9592 24.2887 23.5196 23.5967 23.4384 22.8243L22.3115 12.1021C21.6631 5.93284 16.1164 1.44126 9.94716 2.08968ZM3.71178 23.4837L3.4178 20.6866L20.2004 18.9226L20.4943 21.7197L3.71178 23.4837ZM20.0995 35.9012C20.4778 39.4999 17.8577 42.7355 14.259 43.1137C10.6602 43.492 7.42468 40.8719 7.04644 37.2731L5.8705 26.0848L18.9236 24.7128L20.0995 35.9012ZM19.9064 16.1255L3.12381 17.8895L2.73183 14.16C2.24552 9.53306 5.6142 5.37308 10.2411 4.88677C14.8681 4.40046 19.0281 7.76914 19.5144 12.3961L19.9064 16.1255Z"/>
<path d="M12.0998 40.5134L15.8292 40.1214C16.6016 40.0402 17.1619 39.3482 17.0808 38.5759C16.9996 37.8035 16.3076 37.2431 15.5352 37.3243L11.8058 37.7163C11.0334 37.7975 10.473 38.4895 10.5542 39.2618C10.6354 40.0342 11.3274 40.5946 12.0998 40.5134Z"/>
</g>
<defs>
<clipPath id="aaclip0_68092_597">
<rect width="48" height="48"/>
</clipPath>
</defs>
</symbol><symbol viewBox="0 0 53 50" id="construction" xmlns="http://www.w3.org/2000/svg">
<path d="M50.9766 26.5234C51.8179 26.5234 52.5 25.8413 52.5 25V13.625C52.5 12.7837 51.8179 12.1016 50.9766 12.1016C49.9146 12.1016 29.168 12.1016 28.0234 12.1016V2.25C28.0234 1.40866 27.3413 0.726562 26.5 0.726562H10.25C9.40866 0.726562 8.72656 1.40866 8.72656 2.25V12.1016H2.02344C1.18209 12.1016 0.5 12.7837 0.5 13.625V25C0.5 25.8413 1.18209 26.5234 2.02344 26.5234H8.72656V34.8516H2.02344C1.18209 34.8516 0.5 35.5337 0.5 36.375V47.75C0.5 48.5913 1.18209 49.2734 2.02344 49.2734H50.9766C51.8179 49.2734 52.5 48.5913 52.5 47.75V36.375C52.5 35.5337 51.8179 34.8516 50.9766 34.8516H44.2734V26.5234H50.9766ZM49.4531 23.4766C47.8232 23.4766 37.7597 23.4766 36.1484 23.4766V15.1484H49.4531V23.4766ZM33.1016 23.4766C31.5059 23.4766 21.5046 23.4766 19.8984 23.4766V15.1484H33.1016V23.4766ZM11.7734 3.77344H24.9766V12.1016C23.3809 12.1016 13.3796 12.1016 11.7734 12.1016V3.77344ZM3.54688 23.4766V15.1484H16.8516V23.4766C15.2396 23.4766 5.17645 23.4766 3.54688 23.4766ZM11.7734 26.5234H24.9766V34.8516C23.3809 34.8516 13.3796 34.8516 11.7734 34.8516V26.5234ZM3.54688 37.8984H16.8516V46.2266H3.54688V37.8984ZM19.8984 37.8984H33.1016V46.2266H19.8984V37.8984ZM49.4531 37.8984V46.2266H36.1484V37.8984H49.4531ZM41.2266 34.8516C39.6309 34.8516 29.6296 34.8516 28.0234 34.8516V26.5234H41.2266V34.8516Z"/>
</symbol><symbol viewBox="0 0 48 48" id="ic-brain" xmlns="http://www.w3.org/2000/svg">
<g clip-path="url(#aeclip0_68353_1052)">
<path d="M48 24C48 20.514 46.1618 17.3483 43.2212 15.6097C43.5666 14.2193 43.4353 12.7439 42.8241 11.4052C42.1704 9.97406 41.0377 8.85534 39.6346 8.22394C39.492 6.17259 38.65 4.25737 37.208 2.74491C35.5203 0.974812 33.2435 0 30.7969 0C28.1388 0 25.6596 1.19709 24 3.17737C22.3405 1.19709 19.8613 0 17.2031 0C14.7565 0 12.4797 0.974813 10.792 2.745C9.34997 4.25747 8.508 6.17259 8.36541 8.22403C6.96225 8.85544 5.82947 9.97416 5.17594 11.4053C4.56459 12.744 4.43344 14.2194 4.77881 15.6097C1.83825 17.3483 0 20.514 0 24C0 27.486 1.83825 30.6517 4.77881 32.3903C4.43344 33.7808 4.56469 35.2561 5.17594 36.5947C5.82956 38.0259 6.96234 39.1447 8.36541 39.7761C8.508 41.8274 9.34997 43.7426 10.792 45.2551C12.4797 47.0252 14.7565 48 17.2031 48C19.8613 48 22.3405 46.8029 24 44.8226C25.6596 46.8029 28.1388 48 30.7969 48C33.2435 48 35.5203 47.0252 37.208 45.255C38.65 43.7425 39.492 41.8273 39.6346 39.776C41.0378 39.1446 42.1705 38.0258 42.8241 36.5947C43.4354 35.256 43.5666 33.7807 43.2212 32.3903C46.1618 30.6517 48 27.486 48 24ZM41.1986 30.2812H34.5V26.2389H39.4688C40.2454 26.2389 40.875 25.6093 40.875 24.8327C40.875 24.7214 40.8749 20.7188 40.8749 20.7188C40.8749 19.9422 40.2453 19.3126 39.4687 19.3126C38.692 19.3126 38.0624 19.9422 38.0624 20.7188V23.4264H34.5V20.9889C34.5 19.4381 33.2383 18.1764 31.6875 18.1764H28.875C28.0984 18.1764 27.4688 18.8061 27.4688 19.5827C27.4688 20.3593 28.0984 20.9889 28.875 20.9889H31.6875V30.2812H25.4059V27.75C25.4059 26.9734 24.7763 26.3438 23.9996 26.3438C23.223 26.3438 22.5934 26.9734 22.5934 27.75V30.2812C22.5934 31.8321 23.8551 33.0938 25.4059 33.0938H40.4966C40.6814 33.8653 40.6052 34.6829 40.2656 35.4264C39.8113 36.4212 38.9462 37.1468 37.8918 37.4171C37.2455 37.5829 36.8046 38.1799 36.8364 38.8463C36.9162 40.5184 36.3252 42.1052 35.1723 43.3144C34.0207 44.5222 32.4668 45.1875 30.7969 45.1875C28.519 45.1875 26.434 43.8989 25.4062 41.882V38.9062H27.9375C28.7141 38.9062 29.3438 38.2766 29.3438 37.5C29.3438 36.7234 28.7141 36.0938 27.9375 36.0938H25.4062C23.8554 36.0938 22.5938 37.3554 22.5938 38.9062V41.8819C21.5662 43.8989 19.4812 45.1875 17.2031 45.1875C15.5332 45.1875 13.9793 44.5223 12.8276 43.3143C11.9982 42.4445 11.4616 41.3787 11.2543 40.2269H14.625C16.1758 40.2269 17.4375 38.9652 17.4375 37.4144V35.676H18.6562C19.4329 35.676 20.0625 35.0464 20.0625 34.2698C20.0625 33.4931 19.4329 32.8635 18.6562 32.8635H17.4375V31.125C17.4375 29.5742 16.1758 28.3125 14.625 28.3125H12.1875C11.4109 28.3125 10.7812 28.9421 10.7812 29.7188C10.7812 30.4954 11.4109 31.125 12.1875 31.125H14.625V37.4144C14.625 37.4144 10.1117 37.418 10.1081 37.417C9.05372 37.1467 8.1885 36.4211 7.73428 35.4263C7.27903 34.4294 7.29666 33.2992 7.78294 32.3254C7.95666 31.9773 7.9785 31.5728 7.84322 31.2081C7.70794 30.8434 7.42753 30.551 7.06875 30.4005C4.48313 29.3158 2.8125 26.8034 2.8125 24C2.8125 21.1966 4.48313 18.6842 7.06866 17.5996C7.11019 17.5822 7.15041 17.5624 7.18978 17.5413H9.37491V21.76C9.37491 22.5367 10.0045 23.1663 10.7812 23.1663C11.5578 23.1663 12.1874 22.5367 12.1874 21.76V17.5413H17.4375V24.385C17.4375 25.1617 18.0671 25.7913 18.8438 25.7913C19.6204 25.7913 20.25 25.1617 20.25 24.385V21.8538H21.6203C22.397 21.8538 23.0266 21.2242 23.0266 20.4475C23.0266 19.6709 22.397 19.0413 21.6203 19.0413H20.25V17.5413C20.25 15.9905 18.9883 14.7288 17.4375 14.7288H16.5938V10.9688C16.5938 10.1921 15.9642 9.5625 15.1876 9.5625C14.411 9.5625 13.7813 10.1921 13.7813 10.9688V14.7287H7.46531C7.33162 14.0102 7.42069 13.2603 7.73428 12.5736C8.18859 11.5788 9.05372 10.8533 10.1081 10.5829C10.7544 10.4171 11.1953 9.82012 11.1635 9.15366C11.0837 7.48163 11.6747 5.89481 12.8276 4.68563C13.9793 3.47775 15.5332 2.8125 17.2031 2.8125C19.5528 2.8125 21.6971 4.18341 22.6875 6.31059V11.0625C22.6875 12.6133 23.9492 13.875 25.5 13.875H33C33.7766 13.875 34.4062 13.2454 34.4062 12.4688C34.4062 11.6921 33.7766 11.0625 33 11.0625H32.7188V9.09375C32.7188 8.31713 32.0891 7.6875 31.3125 7.6875C30.5359 7.6875 29.9062 8.31713 29.9062 9.09375V11.0625H25.5C25.5 11.0625 25.4975 5.99962 25.4929 5.95341C26.5483 4.03116 28.5816 2.8125 30.7969 2.8125C32.4668 2.8125 34.0207 3.47775 35.1724 4.68572C36.3253 5.89491 36.9163 7.48163 36.8365 9.15375C36.8047 9.82022 37.2456 10.4172 37.8919 10.583C38.9463 10.8533 39.8115 11.5789 40.2657 12.5737C40.721 13.5706 40.7033 14.7008 40.2171 15.6747C40.0433 16.0227 40.0215 16.4272 40.1568 16.7919C40.2921 17.1566 40.5726 17.449 40.9313 17.5995C43.5169 18.6842 45.1875 21.1966 45.1875 24C45.1875 26.7055 43.6312 29.1395 41.1986 30.2812Z"/>
</g>
<defs>
<clipPath id="aeclip0_68353_1052">
<rect width="48" height="48"/>
</clipPath>
</defs>
</symbol><symbol viewBox="0 0 48 48" id="ic-budget" xmlns="http://www.w3.org/2000/svg">
<g clip-path="url(#afclip0_68353_666)">
<path d="M29.5584 11.3411C31.2113 9.83141 32.25 7.65979 32.25 5.25004V1.50004C32.25 1.01788 32.0183 0.565071 31.627 0.283164C31.2359 0.0012582 30.7331 -0.0754293 30.2756 0.0770082L27.5279 0.992946C25.2528 1.75129 22.747 1.75129 20.472 0.992946L17.7243 0.0770082C17.2671 -0.075523 16.764 0.0012582 16.3729 0.283164C15.9817 0.565071 15.75 1.01788 15.75 1.50004V5.25004C15.75 7.65979 16.7887 9.83141 18.4416 11.3411C10.8082 13.7153 5.25 20.8457 5.25 29.25V41.8125C5.25 45.2244 8.02566 48 11.4375 48H36.5625C39.9743 48 42.75 45.2244 42.75 41.8125V29.25C42.75 20.8457 37.1918 13.7153 29.5584 11.3411ZM18.75 5.25004V3.5812L19.5234 3.83901C22.4102 4.80126 25.5898 4.80135 28.4767 3.83901L29.2501 3.5812V5.25004C29.2501 8.14485 26.8949 10.5 24.0001 10.5C21.1053 10.5 18.75 8.14495 18.75 5.25004ZM39.75 41.8125C39.75 43.5702 38.3201 45 36.5625 45H11.4375C9.67987 45 8.25 43.5702 8.25 41.8125V29.25C8.25 20.5654 15.3154 13.5 24 13.5C32.6846 13.5 39.75 20.5654 39.75 29.25V41.8125Z"/>
<path d="M24 27.75C22.3458 27.75 21 26.4042 21 24.75C21 23.0958 22.3458 21.75 24 21.75C25.6542 21.75 27 23.0958 27 24.75C27 25.5784 27.6716 26.25 28.5 26.25C29.3284 26.25 30 25.5784 30 24.75C30 21.9593 28.0849 19.6076 25.5 18.9398V18C25.5 17.1716 24.8284 16.5 24 16.5C23.1716 16.5 22.5 17.1716 22.5 18V18.9398C19.9151 19.6076 18 21.9593 18 24.75C18 28.0584 20.6916 30.75 24 30.75C25.6542 30.75 27 32.0958 27 33.75C27 35.4042 25.6542 36.75 24 36.75C22.3458 36.75 21 35.4042 21 33.75C21 32.9216 20.3284 32.25 19.5 32.25C18.6716 32.25 18 32.9216 18 33.75C18 36.5407 19.9151 38.8924 22.5 39.5602V40.5C22.5 41.3284 23.1716 42 24 42C24.8284 42 25.5 41.3284 25.5 40.5V39.5602C28.0849 38.8924 30 36.5407 30 33.75C30 30.4417 27.3084 27.75 24 27.75Z"/>
</g>
<defs>
<clipPath id="afclip0_68353_666">
<rect width="48" height="48"/>
</clipPath>
</defs>
</symbol><symbol viewBox="0 0 48 48" id="ic-camera" xmlns="http://www.w3.org/2000/svg">
<path d="M33.4623 33.4195V23.689L39.0715 21.3655C43.5808 19.4978 45.7297 14.3096 43.862 9.80033C41.9942 5.29104 36.8061 3.14191 32.2967 5.00988L1.67353 17.6945L4.20854 21.4797L0 23.2229L3.35569 31.3243L9.18442 28.91L11.7194 32.6952L25.0202 27.1857V33.4195C23.9261 34.506 23.2473 36.0104 23.2473 37.6704C23.2473 40.9754 25.9362 43.6643 29.2412 43.6643C30.9014 43.6643 32.4058 42.9856 33.4922 41.8913H48V33.4494H33.4923C33.4823 33.4394 33.4723 33.4294 33.4623 33.4195ZM4.87782 27.6496L3.67473 24.7451L5.80454 23.8629L7.58861 26.5269L4.87782 27.6496ZM12.7733 29.2145L5.91929 18.98L33.373 7.60827C36.4497 6.33401 39.9892 7.80008 41.2636 10.8767C42.5379 13.9533 41.0717 17.4929 37.9952 18.7673L12.7733 29.2145ZM27.8327 26.0208L30.6497 24.854V31.8454C30.1977 31.7361 29.7264 31.6767 29.2412 31.6767C28.7561 31.6767 28.2847 31.7361 27.8327 31.8454V26.0208ZM29.2413 40.8518C27.4871 40.8518 26.0598 39.4245 26.0598 37.6703C26.0598 35.916 27.4871 34.4889 29.2413 34.4889C30.9956 34.4889 32.4228 35.916 32.4228 37.6703C32.4227 39.4246 30.9955 40.8518 29.2413 40.8518ZM35.0664 36.262H45.1876V39.079H35.0663C35.1756 38.6269 35.2351 38.1556 35.2351 37.6705C35.2351 37.1853 35.1757 36.714 35.0664 36.262Z"/>
</symbol><symbol viewBox="0 0 48 48" id="ic-contract" xmlns="http://www.w3.org/2000/svg">
<g clip-path="url(#ahclip0_68353_1823)">
<path d="M16.6204 9.24805H8.22754C7.45081 9.24805 6.82129 9.87756 6.82129 10.6543C6.82129 11.431 7.45081 12.0605 8.22754 12.0605H16.6204C17.3967 12.0605 18.0266 11.431 18.0266 10.6543C18.0266 9.87756 17.3967 9.24805 16.6204 9.24805Z"/>
<path d="M16.6204 14.873H8.22754C7.45081 14.873 6.82129 15.5026 6.82129 16.2793C6.82129 17.056 7.45081 17.6855 8.22754 17.6855H16.6204C17.3967 17.6855 18.0266 17.056 18.0266 16.2793C18.0266 15.5026 17.3967 14.873 16.6204 14.873Z"/>
<path d="M16.6204 20.498H8.22754C7.45081 20.498 6.82129 21.1276 6.82129 21.9043C6.82129 22.681 7.45081 23.3105 8.22754 23.3105H16.6204C17.3967 23.3105 18.0266 22.681 18.0266 21.9043C18.0266 21.1276 17.3967 20.498 16.6204 20.498Z"/>
<path d="M16.6204 26.123H8.22754C7.45081 26.123 6.82129 26.7526 6.82129 27.5293C6.82129 28.306 7.45081 28.9355 8.22754 28.9355H16.6204C17.3967 28.9355 18.0266 28.306 18.0266 27.5293C18.0266 26.7526 17.3967 26.123 16.6204 26.123Z"/>
<path d="M16.6204 31.8438H8.22754C7.45081 31.8438 6.82129 32.4736 6.82129 33.25C6.82129 34.0267 7.45081 34.6562 8.22754 34.6562H16.6204C17.3967 34.6562 18.0266 34.0267 18.0266 33.25C18.0266 32.4736 17.3967 31.8438 16.6204 31.8438Z"/>
<path d="M21.3428 12.0605H29.7356C30.5123 12.0605 31.1418 11.431 31.1418 10.6543C31.1418 9.87756 30.5123 9.24805 29.7356 9.24805H21.3428C20.5664 9.24805 19.9365 9.87756 19.9365 10.6543C19.9365 11.431 20.5664 12.0605 21.3428 12.0605Z"/>
<path d="M21.3428 17.6855H29.7356C30.5123 17.6855 31.1418 17.056 31.1418 16.2793C31.1418 15.5026 30.5123 14.873 29.7356 14.873H21.3428C20.5664 14.873 19.9365 15.5026 19.9365 16.2793C19.9365 17.056 20.5664 17.6855 21.3428 17.6855Z"/>
<path d="M26.7913 21.9043C26.7913 21.1276 26.1617 20.498 25.385 20.498H21.3428C20.5664 20.498 19.9365 21.1276 19.9365 21.9043C19.9365 22.681 20.5664 23.3105 21.3428 23.3105H25.385C26.1617 23.3105 26.7913 22.681 26.7913 21.9043Z"/>
<path d="M40.1134 32.4364C39.5077 31.9504 38.6229 32.0474 38.1366 32.6532L34.5148 37.1685L32.2724 35.544C31.6437 35.0881 30.764 35.2287 30.3085 35.8575C29.8529 36.4867 29.9935 37.3659 30.6223 37.8215L33.9486 40.2315C34.1976 40.4117 34.4862 40.4992 34.7729 40.4992C35.1857 40.4992 35.5936 40.318 35.8705 39.9726L40.3305 34.4132C40.8165 33.8075 40.7195 32.9223 40.1134 32.4364Z"/>
<path d="M43.6674 28.1195C41.8356 26.2555 39.4819 25.0807 36.9316 24.7346V5.66345C36.9316 2.54077 34.3909 0 31.2682 0H6.69507C3.57202 0 1.03125 2.54077 1.03125 5.66345V38.239C1.03125 41.3621 3.57202 43.9028 6.6947 43.9028H26.4587C28.6827 46.5154 31.8805 48 35.3401 48C41.7799 48 47.0189 42.7573 47.0189 36.3131C47.0189 33.2281 45.8287 30.3182 43.6674 28.1195ZM3.84375 38.239V5.66345C3.84375 4.09167 5.12292 2.8125 6.69507 2.8125H31.2682C32.8403 2.8125 34.1191 4.09167 34.1191 5.66345V24.6899C28.251 25.3026 23.6613 30.2812 23.6613 36.3131C23.6613 37.9849 24.0099 39.6013 24.6786 41.09H6.69507C5.12292 41.09 3.84375 39.8112 3.84375 38.239ZM35.3401 45.1875C32.5316 45.1875 29.9498 43.8981 28.2561 41.6503C27.0901 40.1023 26.4734 38.257 26.4734 36.3131C26.4734 31.4198 30.4512 27.4387 35.3401 27.4387C35.3862 27.4387 35.4327 27.4395 35.4789 27.4402L35.5005 27.4406C37.8344 27.4819 40.0225 28.4231 41.6616 30.0908C43.3026 31.7604 44.2064 33.9705 44.2064 36.3131C44.2064 41.2064 40.229 45.1875 35.3401 45.1875Z"/>
</g>
<defs>
<clipPath id="ahclip0_68353_1823">
<rect width="48" height="48"/>
</clipPath>
</defs>
</symbol><symbol viewBox="0 0 48 48" id="ic-helmet" xmlns="http://www.w3.org/2000/svg">
<path d="M45.1875 34.0856V29.625C45.1875 24.9949 43.6945 20.594 40.87 16.8982C38.3629 13.6176 34.8964 11.1016 31.026 9.73163C30.9183 7.50066 29.0697 5.71875 26.8125 5.71875H21.1875C18.9303 5.71875 17.0817 7.50066 16.974 9.73163C13.1036 11.1016 9.63713 13.6176 7.12997 16.8982C4.30547 20.594 2.8125 24.9949 2.8125 29.625V34.0856C1.17572 34.6661 0 36.2292 0 38.0625C0 40.3887 1.89253 42.2812 4.21875 42.2812H43.7812C46.1075 42.2812 48 40.3887 48 38.0625C48 36.2292 46.8243 34.6661 45.1875 34.0856ZM5.625 29.625C5.625 24.554 7.79119 19.8068 11.3438 16.4198V21.1875C11.3438 21.9641 11.9734 22.5938 12.75 22.5938C13.5266 22.5938 14.1562 21.9641 14.1562 21.1875V14.2141C15.0424 13.6484 15.9822 13.1549 16.9688 12.7442V24C16.9688 24.7766 17.5984 25.4062 18.375 25.4062C19.1516 25.4062 19.7812 24.7766 19.7812 24V10.7749C19.7813 10.771 19.7812 10.7672 19.7812 10.7633V9.9375C19.7812 9.16209 20.4121 8.53125 21.1875 8.53125H26.8125C27.5879 8.53125 28.2188 9.16209 28.2188 9.9375V10.763C28.2188 10.767 28.2187 10.7709 28.2188 10.775V24C28.2188 24.7766 28.8484 25.4062 29.625 25.4062C30.4016 25.4062 31.0312 24.7766 31.0312 24V12.7442C32.0178 13.155 32.9576 13.6485 33.8438 14.2141V21.1875C33.8438 21.9641 34.4734 22.5938 35.25 22.5938C36.0266 22.5938 36.6562 21.9641 36.6562 21.1875V16.4198C40.2088 19.8068 42.375 24.554 42.375 29.625V33.8438H5.625V29.625ZM43.7812 39.4688H4.21875C3.44334 39.4688 2.8125 38.8379 2.8125 38.0625C2.8125 37.2871 3.44334 36.6562 4.21875 36.6562H43.7812C44.5567 36.6562 45.1875 37.2871 45.1875 38.0625C45.1875 38.8379 44.5567 39.4688 43.7812 39.4688Z"/>
</symbol><symbol viewBox="0 0 48 48" id="ic-house" xmlns="http://www.w3.org/2000/svg">
<g clip-path="url(#ajclip0_68353_1653)">
<path d="M28.9219 21.0938C26.9645 21.0938 25.2653 21.9855 24 23.6748C22.7344 21.9855 21.0352 21.0938 19.0781 21.0938C15.423 21.0938 12.75 24.0978 12.75 27.7841C12.75 32.5499 17.369 35.5437 23.0848 40.4425C23.3481 40.6681 23.6741 40.7813 24 40.7809C24.3259 40.7809 24.6519 40.6681 24.9152 40.4425C30.6379 35.5375 35.25 32.5481 35.25 27.7841C35.25 24.1007 32.5796 21.0938 28.9219 21.0938ZM24 37.5286C18.85 33.178 15.5625 30.832 15.5625 27.7841C15.5625 25.5732 17.0739 23.9063 19.0781 23.9063C21.6844 23.9063 22.6069 26.9652 22.6472 27.1036C22.8193 27.7075 23.3712 28.125 24 28.125C24.6306 28.125 25.184 27.705 25.3539 27.0978C25.363 27.0659 26.2782 23.9063 28.9219 23.9063C30.9258 23.9063 32.4375 25.5732 32.4375 27.7841C32.4375 30.8346 29.1456 33.1816 24 37.5286Z"/>
<path d="M46.5934 45.188H42.3746V23.3447C42.3827 23.3505 42.3907 23.356 42.3988 23.3619C43.0203 23.8075 43.8842 23.6746 44.343 23.063L47.7188 18.5641C47.9451 18.262 48.0406 17.8819 47.9843 17.5087C47.9275 17.1355 47.7231 16.8008 47.417 16.58C47.1921 16.4178 24.9437 0.354281 24.8298 0.271883C24.3369 -0.0884687 23.6678 -0.0892012 23.1742 0.268953C23.1064 0.318026 18.8573 3.38578 14.0625 6.84794V4.21964C14.0625 3.44291 13.433 2.81339 12.6562 2.81339H7.03125C6.25452 2.81339 5.625 3.44291 5.625 4.21964V12.9399C2.74146 15.0218 0.651123 16.5309 0.583008 16.58C0.277222 16.8008 0.072876 17.1355 0.0161133 17.5087C-0.0406494 17.8819 0.0549317 18.2624 0.281616 18.5641L3.65698 23.063C4.11584 23.6746 4.97974 23.8075 5.6012 23.3619C5.60925 23.356 5.61694 23.3505 5.625 23.3447V45.1884H1.40625C0.629517 45.1884 0 45.8179 0 46.5947C0 47.371 0.629517 48.0009 1.40625 48.0009H46.5934C47.3701 48.0009 47.9996 47.371 47.9996 46.5947C47.9996 45.8179 47.3701 45.188 46.5934 45.188ZM8.4375 5.62589H11.25V8.87858C10.2975 9.56632 9.35083 10.2497 8.4375 10.9089V5.62589ZM5.08081 20.2743L3.39075 18.0218C17.5712 7.78361 22.3722 4.31705 24 3.14151C26.2672 4.77884 33.1714 9.76371 44.6093 18.0218L42.9196 20.2743C42.7793 20.174 24.98 7.4108 24.8225 7.29764C24.3311 6.94315 23.6678 6.94388 23.1771 7.29801C22.8582 7.52726 5.48254 19.9861 5.08081 20.2743ZM8.4375 21.3279C18.7676 13.9209 22.5864 11.1828 24 10.1687C25.9102 11.5387 31.1199 15.2745 39.5625 21.3279V45.1884H8.4375V21.3279Z"/>
</g>
<defs>
<clipPath id="ajclip0_68353_1653">
<rect width="48" height="48"/>
</clipPath>
</defs>
</symbol><symbol viewBox="0 0 53 52" id="ic-painting" xmlns="http://www.w3.org/2000/svg">
<g id="akic-painting">
<path id="akVector" d="M43.3594 4.57031C43.3594 2.05029 41.3091 0 38.7891 0H8.32031C5.80029 0 3.75 2.05029 3.75 4.57031V13.7109C3.75 16.231 5.80029 18.2813 8.32031 18.2813H38.7891C41.3091 18.2813 43.3594 16.231 43.3594 13.7109V12.1875H44.8828C45.7227 12.1875 46.4063 12.8711 46.4063 13.7109V19.8047C46.4063 20.6446 45.7227 21.3281 44.8828 21.3281H26.6016C24.0815 21.3281 22.0313 23.3784 22.0313 25.8984V30.4688H20.5078C19.6664 30.4688 18.9844 31.1507 18.9844 31.9922V38.003L17.4609 44.1952C16.4703 48.1573 19.464 52 23.5547 52C27.6473 52 30.6379 48.1533 29.65 44.2007L28.125 38.003V31.9922C28.125 31.1507 27.443 30.4688 26.6016 30.4688H25.0781V25.8984C25.0781 25.0586 25.7617 24.375 26.6016 24.375H44.8828C47.4028 24.375 49.4531 22.3247 49.4531 19.8047V13.7109C49.4531 11.1909 47.4028 9.14063 44.8828 9.14063H43.3594V4.57031ZM25.0781 33.5156V36.6641H22.0313V33.5156H25.0781ZM23.5547 48.9531C21.456 48.9531 19.9044 46.9834 20.4182 44.9287L21.702 39.7109H25.4074L26.6924 44.9343C27.2026 46.9746 25.6609 48.9531 23.5547 48.9531ZM8.32031 3.04688H38.7891C39.6289 3.04688 40.3125 3.73044 40.3125 4.57031V6.09375H35.7422C34.2616 6.09375 32.3684 6.64838 30.1761 7.29028C27.2149 8.15753 23.859 9.14063 20.5078 9.14063C17.2412 9.14063 14.9381 8.18649 12.9061 7.34503C11.3525 6.70154 9.88541 6.09375 8.32031 6.09375H6.79688V4.57031C6.79688 3.73044 7.48044 3.04688 8.32031 3.04688ZM40.3125 13.7109C40.3125 14.5508 39.6289 15.2344 38.7891 15.2344H8.32031C7.48044 15.2344 6.79688 14.5508 6.79688 13.7109V9.14063H8.32031C9.27921 9.14063 10.3654 9.59052 11.7401 10.1598C13.9209 11.0632 16.6349 12.1875 20.5078 12.1875C24.2962 12.1875 28.031 11.0933 31.0326 10.2146C32.9179 9.66232 34.6988 9.14063 35.7422 9.14063H40.3125V13.7109Z"/>
</g>
</symbol><symbol viewBox="0 0 53 52" id="ic-pantone" xmlns="http://www.w3.org/2000/svg">
<g id="alic-pantone" clip-path="url(#alclip0_68384_1698)">
<path id="alVector" d="M11.2656 36.6641C8.74555 36.6641 6.69531 38.7143 6.69531 41.2344C6.69531 43.7544 8.74555 45.8047 11.2656 45.8047C13.7857 45.8047 15.8359 43.7544 15.8359 41.2344C15.8359 38.7143 13.7857 36.6641 11.2656 36.6641ZM11.2656 42.7578C10.4256 42.7578 9.74219 42.0744 9.74219 41.2344C9.74219 40.3944 10.4256 39.7109 11.2656 39.7109C12.1056 39.7109 12.7891 40.3944 12.7891 41.2344C12.7891 42.0744 12.1056 42.7578 11.2656 42.7578Z"/>
<path id="alVector_2" d="M49.7504 30.9497C50.7897 29.5433 50.9811 27.582 50.0361 25.9454L43.9455 15.2945C42.8919 13.4696 40.6701 12.6369 38.6882 13.1667C39.1102 11.2698 38.2823 9.23477 36.5124 8.21295L25.9584 2.11961C24.4511 1.24922 22.6489 1.33839 21.2628 2.19568C20.4596 0.880141 19.0104 0 17.3594 0H5.07031C2.55024 0 0.5 2.05024 0.5 4.57031C0.5 5.62707 0.5 46.2132 0.5 47.4297C0.5 49.9498 2.55024 52 5.07031 52C6.25382 52 42.1374 52 47.9297 52C50.4498 52 52.5 49.9498 52.5 47.4297V35.1406C52.5 33.2675 51.3669 31.6547 49.7504 30.9497ZM18.8828 47.4297C18.8828 48.2697 18.1994 48.9531 17.3594 48.9531H5.07031C4.23029 48.9531 3.54688 48.2697 3.54688 47.4297C3.54688 46.7337 3.54688 34.2857 3.54688 33.6172H18.8828V47.4297ZM18.8828 30.5703H3.54688V18.2812H18.8828V30.5703ZM18.8828 15.2344H3.54688V4.57031C3.54688 3.73029 4.23029 3.04688 5.07031 3.04688H17.3594C18.1994 3.04688 18.8828 3.73029 18.8828 4.57031V15.2344ZM21.9297 6.04988L22.3533 5.31609C22.7736 4.58839 23.7073 4.33814 24.4349 4.75831L34.989 10.8516C35.7167 11.2718 35.9668 12.2056 35.5456 12.9353L33.7853 15.9951C33.7412 16.0602 33.7016 16.1278 33.6683 16.1984L21.9297 36.6026V6.04988ZM21.9297 42.7126L36.171 17.9581L39.1156 16.258C39.8621 15.8271 40.8859 16.0888 41.3037 16.8125L47.3944 27.4633C47.8156 28.1929 47.57 29.1283 46.8328 29.5539C45.7449 30.1837 23.0011 43.3507 21.9297 43.971V42.7126ZM49.4531 47.4297C49.4531 48.2697 48.7697 48.9531 47.9297 48.9531H21.6677C21.8301 48.4951 21.9212 48.0039 21.9282 47.4926L45.8954 33.6172H47.9297C48.7697 33.6172 49.4531 34.3006 49.4531 35.1406V47.4297Z"/>
</g>
<defs>
<clipPath id="alclip0_68384_1698">
<rect width="52" height="52" transform="translate(0.5)"/>
</clipPath>
</defs>
</symbol><symbol viewBox="0 0 53 52" id="ic-plan" xmlns="http://www.w3.org/2000/svg">
<g clip-path="url(#amclip0_68384_1789)">
<path d="M46.4062 3.14844C44.1552 3.14844 42.1854 4.37521 41.1303 6.19531H2.02344C1.18209 6.19531 0.5 6.87741 0.5 7.71875V47.3281C0.5 48.1695 1.18209 48.8516 2.02344 48.8516H46.4062C49.7663 48.8516 52.5 46.1179 52.5 42.7578V9.24219C52.5 5.88209 49.7663 3.14844 46.4062 3.14844ZM46.4062 45.8047C45.8103 45.8047 4.1011 45.8047 3.54688 45.8047V9.24219H40.3125V42.7578C40.3125 43.5992 40.9946 44.2812 41.8359 44.2812C42.6773 44.2812 43.3594 43.5992 43.3594 42.7578C43.3594 41.0778 44.7262 39.7109 46.4062 39.7109C48.0863 39.7109 49.4531 41.0778 49.4531 42.7578C49.4531 44.4379 48.0863 45.8047 46.4062 45.8047ZM49.4531 37.4818C48.5563 36.9619 47.5153 36.6641 46.4062 36.6641C45.2972 36.6641 44.2562 36.9619 43.3594 37.4818V9.24219C43.3594 7.56214 44.7262 6.19531 46.4062 6.19531C48.0863 6.19531 49.4531 7.56214 49.4531 9.24219V37.4818Z"/>
<path d="M35.6406 12.2891H8.21875C7.37741 12.2891 6.69531 12.9712 6.69531 13.8125V41.2344C6.69531 42.0757 7.37741 42.7578 8.21875 42.7578H23.4531C23.8572 42.7578 24.2446 42.5972 24.5303 42.3115C24.8161 42.0259 24.9766 41.6384 24.9766 41.2344V38.1875C24.9766 36.2013 26.2501 34.507 28.0234 33.8782V41.2344C28.0234 42.0757 28.7055 42.7578 29.5469 42.7578H35.6406C36.482 42.7578 37.1641 42.0757 37.1641 41.2344V13.8125C37.1641 12.9712 36.482 12.2891 35.6406 12.2891ZM34.1172 39.7109H31.0703V32.0938C31.0703 31.2524 30.3882 30.5703 29.5469 30.5703C25.3468 30.5703 21.9297 33.9874 21.9297 38.1875V39.7109H9.74219V30.5703H15.8359V35.1406C15.8359 35.982 16.518 36.6641 17.3594 36.6641C18.2007 36.6641 18.8828 35.982 18.8828 35.1406V29.0469C18.8828 28.2055 18.2007 27.5234 17.3594 27.5234H9.74219V15.3359H18.8828V21.4297H14.3125C13.4712 21.4297 12.7891 22.1118 12.7891 22.9531C12.7891 23.7945 13.4712 24.4766 14.3125 24.4766H20.4062H26.5C27.3413 24.4766 28.0234 23.7945 28.0234 22.9531C28.0234 22.1118 27.3413 21.4297 26.5 21.4297H21.9297V15.3359H34.1172V39.7109Z"/>
</g>
<defs>
<clipPath id="amclip0_68384_1789">
<rect width="52" height="52" transform="translate(0.5)"/>
</clipPath>
</defs>
</symbol><symbol viewBox="0 0 48 48" id="ic-success" xmlns="http://www.w3.org/2000/svg">
<g clip-path="url(#anclip0_68353_844)">
<path d="M42.8265 15.0619H36.7016V10.3436H46.5918C46.5926 10.3436 46.5933 10.3436 46.5937 10.3436C47.3704 10.3436 47.9999 9.71373 47.9999 8.93736C47.9999 8.52684 47.8245 8.1577 47.544 7.90062L44.815 5.17162L47.5865 2.40051C47.9886 1.99841 48.1087 1.39343 47.8911 0.868284C47.6736 0.342773 47.1609 0 46.5922 0H35.2953C34.519 0 33.8895 0.629515 33.8895 1.40625V15.0619H32.2829C29.4312 15.0619 27.1113 17.3822 27.1113 20.2338V23.1646C26.4034 22.8002 25.6018 22.593 24.7521 22.593H23.2459C20.3942 22.593 18.0743 24.9129 18.0743 27.7646V30.6957C17.3661 30.3314 16.5644 30.1241 15.7148 30.1241H14.209C11.3569 30.1241 9.03697 32.444 9.03697 35.2957V38.2269C8.32909 37.8621 7.52745 37.6548 6.67784 37.6548H5.17162C2.31994 37.6548 0 39.9748 0 42.8265V46.5918C0 47.3686 0.629515 47.9981 1.40625 47.9981H46.5918C47.3686 47.9981 47.9981 47.3686 47.9981 46.5918V20.2338C47.9981 17.3822 45.6781 15.0619 42.8265 15.0619ZM36.7016 2.81249H43.1971L41.8322 4.17736C41.5682 4.44103 41.4202 4.79882 41.4202 5.17162C41.4202 5.54479 41.5682 5.90221 41.8322 6.16625L43.1971 7.53111H36.7016V2.81249ZM2.81249 42.8265C2.81249 41.5257 3.87084 40.4673 5.17162 40.4673H6.67784C7.97862 40.4673 9.03697 41.5257 9.03697 42.8265V45.1859H2.81249V42.8265ZM11.8495 42.8265V35.2957C11.8495 33.9946 12.9078 32.9362 14.2086 32.9362H15.7148C17.0156 32.9362 18.0739 33.9946 18.0739 35.2957V45.1859H11.8495V42.8265ZM20.8864 35.2957V27.7646C20.8864 26.4638 21.9451 25.4055 23.2459 25.4055H24.7521C26.0529 25.4055 27.1113 26.4638 27.1113 27.7646V45.1859H20.8864V35.2957ZM45.1856 45.1859H29.9238V20.2338C29.9238 18.9327 30.9821 17.8744 32.2829 17.8744H42.8265C44.1272 17.8744 45.1856 18.9327 45.1856 20.2338V45.1859Z"/>
</g>
<defs>
<clipPath id="anclip0_68353_844">
<rect width="48" height="48"/>
</clipPath>
</defs>
</symbol><symbol viewBox="0 0 53 52" id="idle" xmlns="http://www.w3.org/2000/svg">
<g id="aoic-construction" clip-path="url(#aoclip0_68384_2081)">
<path id="aoVector" d="M50.9766 27.5234C51.8179 27.5234 52.5 26.8413 52.5 26V14.625C52.5 13.7837 51.8179 13.1016 50.9766 13.1016C49.9146 13.1016 29.168 13.1016 28.0234 13.1016V3.25C28.0234 2.40866 27.3413 1.72656 26.5 1.72656H10.25C9.40866 1.72656 8.72656 2.40866 8.72656 3.25V13.1016H2.02344C1.18209 13.1016 0.5 13.7837 0.5 14.625V26C0.5 26.8413 1.18209 27.5234 2.02344 27.5234H8.72656V35.8516H2.02344C1.18209 35.8516 0.5 36.5337 0.5 37.375V48.75C0.5 49.5913 1.18209 50.2734 2.02344 50.2734H50.9766C51.8179 50.2734 52.5 49.5913 52.5 48.75V37.375C52.5 36.5337 51.8179 35.8516 50.9766 35.8516H44.2734V27.5234H50.9766ZM49.4531 24.4766C47.8232 24.4766 37.7597 24.4766 36.1484 24.4766V16.1484H49.4531V24.4766ZM33.1016 24.4766C31.5059 24.4766 21.5046 24.4766 19.8984 24.4766V16.1484H33.1016V24.4766ZM11.7734 4.77344H24.9766V13.1016C23.3809 13.1016 13.3796 13.1016 11.7734 13.1016V4.77344ZM3.54688 24.4766V16.1484H16.8516V24.4766C15.2396 24.4766 5.17645 24.4766 3.54688 24.4766ZM11.7734 27.5234H24.9766V35.8516C23.3809 35.8516 13.3796 35.8516 11.7734 35.8516V27.5234ZM3.54688 38.8984H16.8516V47.2266H3.54688V38.8984ZM19.8984 38.8984H33.1016V47.2266H19.8984V38.8984ZM49.4531 38.8984V47.2266H36.1484V38.8984H49.4531ZM41.2266 35.8516C39.6309 35.8516 29.6296 35.8516 28.0234 35.8516V27.5234H41.2266V35.8516Z"/>
</g>
<defs>
<clipPath id="aoclip0_68384_2081">
<rect width="52" height="52" transform="translate(0.5)"/>
</clipPath>
</defs>
</symbol><symbol viewBox="0 0 48 48" id="quality" xmlns="http://www.w3.org/2000/svg">
<path d="M44.0166 29.7188C44.6859 28.9716 45.0938 27.9853 45.0938 26.9062C45.0938 24.5803 43.2009 22.6875 40.875 22.6875H32.6869C33.4978 20.2266 33.8438 16.9613 33.8438 15.5616V14.1562C33.8438 11.055 31.32 8.53125 28.2188 8.53125H26.8125C26.1675 8.53125 25.605 8.97 25.4484 9.59625L24.6825 12.6609C23.6091 16.9528 20.2012 21.6881 16.6744 22.5488C16.0566 20.985 14.5312 19.875 12.75 19.875H4.3125C3.53625 19.875 2.90625 20.505 2.90625 21.2812V46.5938C2.90625 47.37 3.53625 48 4.3125 48H12.75C14.4272 48 15.8784 47.0166 16.5581 45.5953L21.39 47.2059C22.9697 47.7328 24.6159 48 26.2819 48H38.0625C40.3884 48 42.2812 46.1072 42.2812 43.7812C42.2812 43.2328 42.1762 42.7078 41.985 42.2269C43.7737 41.7384 45.0938 40.0987 45.0938 38.1562C45.0938 37.0772 44.6859 36.0909 44.0166 35.3438C44.6859 34.5966 45.0938 33.6103 45.0938 32.5312C45.0938 31.4522 44.6859 30.4659 44.0166 29.7188ZM14.1562 43.7812C14.1562 44.5566 13.5253 45.1875 12.75 45.1875H5.71875V22.6875H12.75C13.5253 22.6875 14.1562 23.3184 14.1562 24.0938V43.7812ZM38.0625 31.125H40.875C41.6503 31.125 42.2812 31.7559 42.2812 32.5312C42.2812 33.3066 41.6503 33.9375 40.875 33.9375H38.0625C37.2863 33.9375 36.6562 34.5675 36.6562 35.3438C36.6562 36.12 37.2863 36.75 38.0625 36.75H40.875C41.6503 36.75 42.2812 37.3809 42.2812 38.1562C42.2812 38.9316 41.6503 39.5625 40.875 39.5625H38.0625C37.2863 39.5625 36.6562 40.1925 36.6562 40.9688C36.6562 41.745 37.2863 42.375 38.0625 42.375C38.8378 42.375 39.4688 43.0059 39.4688 43.7812C39.4688 44.5566 38.8378 45.1875 38.0625 45.1875H26.2819C24.9187 45.1875 23.5716 44.9691 22.2787 44.5378L16.9688 42.7678V25.3669C19.1747 24.9478 21.3338 23.5509 23.2828 21.2644C25.1859 19.0313 26.7291 16.0706 27.4106 13.3434L27.9103 11.3438H28.2188C29.7694 11.3438 31.0312 12.6056 31.0312 14.1562V15.5616C31.0312 17.4497 30.4406 21.0713 29.685 22.6875H26.8125C26.0363 22.6875 25.4062 23.3175 25.4062 24.0938C25.4062 24.87 26.0363 25.5 26.8125 25.5H40.875C41.6503 25.5 42.2812 26.1309 42.2812 26.9062C42.2812 27.6816 41.6503 28.3125 40.875 28.3125H38.0625C37.2863 28.3125 36.6562 28.9425 36.6562 29.7188C36.6562 30.495 37.2863 31.125 38.0625 31.125Z"/>
<path d="M9.9375 42.375C10.7142 42.375 11.3438 41.7454 11.3438 40.9688C11.3438 40.1921 10.7142 39.5625 9.9375 39.5625C9.16085 39.5625 8.53125 40.1921 8.53125 40.9688C8.53125 41.7454 9.16085 42.375 9.9375 42.375Z"/>
<path d="M29.625 0C28.8484 0 28.2188 0.629625 28.2188 1.40625V4.3125C28.2188 5.08913 28.8484 5.71875 29.625 5.71875C30.4016 5.71875 31.0312 5.08913 31.0312 4.3125V1.40625C31.0312 0.629625 30.4016 0 29.625 0Z"/>
<path d="M23.6589 6.20139L21.6701 4.21267C21.1211 3.66348 20.2306 3.66348 19.6814 4.21267C19.1322 4.76186 19.1322 5.6522 19.6814 6.20139L21.6701 8.19011C22.2192 8.7392 23.1098 8.7393 23.6589 8.19011C24.2081 7.64092 24.2081 6.75058 23.6589 6.20139Z"/>
<path d="M39.569 4.21267C39.0199 3.66348 38.1295 3.66348 37.5803 4.21267L35.5916 6.2013C35.0424 6.75049 35.0424 7.64083 35.5916 8.19002C36.1407 8.73921 37.0311 8.7393 37.5803 8.19011L39.569 6.20139C40.1182 5.6522 40.1182 4.76186 39.569 4.21267Z"/>
</symbol><symbol viewBox="0 0 48 48" id="safety" xmlns="http://www.w3.org/2000/svg">
<g clip-path="url(#avclip0_68092_124)">
<path d="M7 44H1.5C0.672 44 0 43.328 0 42.5V25.5C0 24.672 0.672 24 1.5 24C8.512 24 11.776 26.434 11.91 26.538C12.394 26.908 12.608 27.534 12.448 28.122L8.448 42.894C8.272 43.546 7.678 44 7 44ZM3 41H5.852L9.248 28.458C8.202 27.964 6.158 27.228 3 27.044V41Z"/>
<path d="M26.0002 48C21.4822 48 13.1542 44.542 6.96221 41.638C6.21221 41.286 5.89021 40.392 6.24221 39.642C6.59221 38.892 7.48821 38.566 8.23621 38.92C16.4762 42.786 22.9522 45 26.0002 45C30.0562 45 39.2642 40.618 44.0902 38.09C43.5342 37.772 42.7062 37.5 41.5002 37.5C39.7402 37.5 37.5702 38.22 35.4722 38.916C34.7902 39.142 34.1102 39.368 33.4362 39.574C31.9522 40.032 30.2002 40.5 28.4982 40.5C24.2842 40.5 18.7202 38.496 18.4862 38.41C17.7062 38.126 17.3042 37.266 17.5882 36.488C17.8722 35.708 18.7342 35.31 19.5102 35.59C19.5622 35.61 24.8142 37.5 28.4982 37.5C29.8102 37.5 31.3562 37.076 32.5562 36.706C33.2082 36.506 33.8662 36.288 34.5242 36.07C36.8482 35.298 39.2502 34.5 41.4962 34.5C46.4542 34.5 47.8322 37.802 47.8882 37.944C48.1702 38.646 47.8822 39.448 47.2202 39.814C46.6202 40.148 32.3142 48 26.0002 48Z"/>
<path d="M32.9998 39.6795C32.1718 39.6795 31.4998 39.0075 31.4998 38.1795V37.2795C31.4998 36.0975 30.6578 35.0655 29.4998 34.8295L10.2378 30.8895C9.42776 30.7235 8.90376 29.9315 9.06976 29.1195C9.23576 28.3075 10.0298 27.7895 10.8398 27.9515L30.1018 31.8915C32.6498 32.4115 34.4998 34.6795 34.4998 37.2815V38.1815C34.4998 39.0075 33.8278 39.6795 32.9998 39.6795Z"/>
<path d="M36 27.9991C35.8 27.9991 35.602 27.959 35.414 27.879C34.948 27.681 24 22.915 24 13.107V5.07105C24 4.42905 24.408 3.85905 25.018 3.65105L35.518 0.0790469C35.83 -0.0289531 36.17 -0.0289531 36.482 0.0790469L46.982 3.65105C47.592 3.85705 48 4.42705 48 5.07105V13.107C48 22.915 37.052 27.6831 36.586 27.8811C36.398 27.959 36.2 27.9991 36 27.9991ZM27 6.14505V13.107C27 19.803 33.91 23.789 35.998 24.8391C38.082 23.783 45 19.7771 45 13.107V6.14505L36 3.08305L27 6.14505Z"/>
<path d="M35.4995 19.0003C35.1035 19.0003 34.7195 18.8423 34.4395 18.5603L30.4395 14.5603C29.8535 13.9743 29.8535 13.0243 30.4395 12.4383C31.0255 11.8523 31.9755 11.8523 32.5615 12.4383L35.3395 15.2163L40.2995 8.60027C40.7915 7.93828 41.7335 7.80227 42.3995 8.30027C43.0615 8.79827 43.1955 9.73827 42.6975 10.4003L36.6975 18.4003C36.4375 18.7483 36.0395 18.9663 35.6035 18.9963C35.5695 19.0003 35.5355 19.0003 35.4995 19.0003Z"/>
</g>
<defs>
<clipPath id="avclip0_68092_124">
<rect width="48" height="48"/>
</clipPath>
</defs>
</symbol></svg>